<?xml version="1.0" encoding="utf-8"?>
<!-- Generator: Adobe Illustrator 25.4.1, SVG Export Plug-In . SVG Version: 6.00 Build 0)  -->
<svg version="1.1" id="Capa_1" xmlns="http://www.w3.org/2000/svg" xmlns:xlink="http://www.w3.org/1999/xlink" x="0px" y="0px"
	 viewBox="0 0 150 20" style="enable-background:new 0 0 150 20;" xml:space="preserve">
<style type="text/css">
	.st0{fill:#FFFFFF;}
</style>
<g>
	<g>
		<path class="st0" d="M6.27,6.33c0.58-1.08,1.37-1.91,2.37-2.51c1-0.6,2.11-0.9,3.32-0.9c1.09,0,2.05,0.21,2.86,0.64
			c0.82,0.43,1.47,0.96,1.96,1.6V3.15h2.9v13.9h-2.9v-2.07c-0.49,0.66-1.15,1.2-1.99,1.64c-0.84,0.44-1.8,0.66-2.88,0.66
			c-1.19,0-2.29-0.31-3.28-0.92c-0.99-0.61-1.78-1.47-2.36-2.57c-0.58-1.1-0.87-2.35-0.87-3.75C5.4,8.64,5.69,7.41,6.27,6.33z
			 M16.18,7.59c-0.4-0.71-0.91-1.25-1.55-1.62c-0.64-0.37-1.33-0.55-2.07-0.55s-1.43,0.18-2.07,0.54C9.85,6.32,9.34,6.85,8.94,7.55
			c-0.4,0.7-0.59,1.53-0.59,2.49s0.2,1.8,0.59,2.52c0.4,0.72,0.92,1.27,1.56,1.65c0.65,0.38,1.33,0.57,2.06,0.57
			c0.74,0,1.43-0.19,2.07-0.56c0.64-0.37,1.16-0.91,1.55-1.63c0.4-0.71,0.59-1.55,0.59-2.51S16.58,8.3,16.18,7.59z"/>
		<path class="st0" d="M43.23,3.6c0.87,0.46,1.55,1.13,2.04,2.02c0.5,0.89,0.74,1.97,0.74,3.23v8.2h-2.85V9.28
			c0-1.24-0.31-2.2-0.93-2.86c-0.62-0.66-1.47-1-2.55-1c-1.08,0-1.93,0.33-2.56,1c-0.63,0.67-0.95,1.62-0.95,2.86v7.77h-2.85V9.28
			c0-1.24-0.31-2.2-0.93-2.86c-0.62-0.66-1.47-1-2.55-1c-1.08,0-1.93,0.33-2.56,1c-0.63,0.67-0.95,1.62-0.95,2.86v7.77h-2.88V3.15
			h2.88v1.59c0.47-0.57,1.07-1.02,1.79-1.34c0.72-0.32,1.5-0.48,2.32-0.48c1.11,0,2.1,0.24,2.98,0.71c0.87,0.47,1.55,1.15,2.02,2.04
			c0.42-0.84,1.08-1.51,1.97-2.01c0.89-0.5,1.85-0.74,2.88-0.74C41.39,2.92,42.37,3.15,43.23,3.6z"/>
		<path class="st0" d="M49.59,6.33c0.58-1.08,1.37-1.91,2.37-2.51c1-0.6,2.11-0.9,3.32-0.9c1.09,0,2.05,0.21,2.86,0.64
			c0.82,0.43,1.47,0.96,1.96,1.6V3.15H63v13.9h-2.9v-2.07c-0.49,0.66-1.15,1.2-1.99,1.64c-0.84,0.44-1.8,0.66-2.88,0.66
			c-1.19,0-2.29-0.31-3.28-0.92c-0.99-0.61-1.78-1.47-2.36-2.57c-0.58-1.1-0.87-2.35-0.87-3.75C48.72,8.64,49.01,7.41,49.59,6.33z
			 M59.51,7.59c-0.4-0.71-0.91-1.25-1.55-1.62c-0.64-0.37-1.33-0.55-2.07-0.55s-1.43,0.18-2.07,0.54c-0.64,0.36-1.16,0.89-1.55,1.59
			c-0.4,0.7-0.59,1.53-0.59,2.49s0.2,1.8,0.59,2.52c0.4,0.72,0.92,1.27,1.56,1.65c0.65,0.38,1.33,0.57,2.06,0.57
			c0.74,0,1.43-0.19,2.07-0.56c0.64-0.37,1.16-0.91,1.55-1.63c0.4-0.71,0.59-1.55,0.59-2.51S59.9,8.3,59.51,7.59z"/>
		<path class="st0" d="M68.89,16.69c-0.87-0.4-1.55-0.93-2.06-1.62c-0.5-0.68-0.77-1.44-0.81-2.28h2.98
			c0.05,0.59,0.33,1.08,0.85,1.48c0.51,0.4,1.16,0.59,1.93,0.59c0.81,0,1.43-0.16,1.88-0.47c0.45-0.31,0.67-0.71,0.67-1.2
			c0-0.52-0.25-0.91-0.74-1.16c-0.5-0.25-1.28-0.53-2.36-0.83c-1.04-0.29-1.89-0.56-2.55-0.83c-0.66-0.27-1.22-0.68-1.7-1.24
			s-0.72-1.29-0.72-2.2c0-0.74,0.22-1.42,0.66-2.03c0.44-0.61,1.06-1.1,1.88-1.45c0.82-0.35,1.75-0.53,2.81-0.53
			c1.58,0,2.85,0.4,3.82,1.2c0.97,0.8,1.48,1.89,1.55,3.27H74.1c-0.05-0.62-0.3-1.12-0.76-1.49c-0.45-0.37-1.07-0.56-1.84-0.56
			c-0.76,0-1.34,0.14-1.74,0.43c-0.4,0.29-0.61,0.66-0.61,1.13c0,0.37,0.13,0.68,0.4,0.93c0.27,0.25,0.6,0.45,0.98,0.59
			c0.39,0.14,0.96,0.32,1.72,0.54c1.01,0.27,1.84,0.54,2.49,0.82c0.65,0.28,1.21,0.69,1.68,1.22c0.47,0.54,0.71,1.25,0.73,2.14
			c0,0.79-0.22,1.5-0.66,2.12c-0.44,0.62-1.06,1.11-1.85,1.46c-0.8,0.35-1.74,0.53-2.81,0.53C70.74,17.28,69.76,17.08,68.89,16.69z"
			/>
		<path class="st0" d="M80.17,6.33c0.58-1.08,1.37-1.91,2.37-2.51c1-0.6,2.11-0.9,3.32-0.9c1.09,0,2.05,0.21,2.86,0.64
			c0.82,0.43,1.47,0.96,1.96,1.6V3.15h2.9v13.9h-2.9v-2.07c-0.49,0.66-1.15,1.2-1.99,1.64s-1.8,0.66-2.88,0.66
			c-1.2,0-2.29-0.31-3.28-0.92c-0.99-0.61-1.78-1.47-2.36-2.57c-0.58-1.1-0.87-2.35-0.87-3.75C79.3,8.64,79.59,7.41,80.17,6.33z
			 M90.09,7.59c-0.4-0.71-0.91-1.25-1.55-1.62c-0.64-0.37-1.33-0.55-2.07-0.55S85.04,5.6,84.4,5.96c-0.64,0.36-1.16,0.89-1.55,1.59
			c-0.4,0.7-0.59,1.53-0.59,2.49s0.2,1.8,0.59,2.52c0.39,0.72,0.92,1.27,1.56,1.65c0.65,0.38,1.33,0.57,2.06,0.57
			c0.74,0,1.43-0.19,2.07-0.56c0.64-0.37,1.16-0.91,1.55-1.63s0.59-1.55,0.59-2.51S90.48,8.3,90.09,7.59z"/>
		<path class="st0" d="M97.18,16.54c-0.53-0.48-0.79-1.09-0.79-1.83c0-0.74,0.27-1.35,0.79-1.84c0.53-0.49,1.23-0.73,2.11-0.73
			c0.86,0,1.55,0.24,2.08,0.73c0.53,0.49,0.79,1.1,0.79,1.84c0,0.72-0.26,1.33-0.79,1.82c-0.53,0.49-1.22,0.73-2.08,0.73
			C98.41,17.25,97.71,17.01,97.18,16.54z"/>
		<path class="st0" d="M127.18,4.39c1.02,1.08,1.53,2.55,1.53,4.42v8.25h-4.95V9.46c0-0.76-0.21-1.35-0.63-1.77
			c-0.42-0.42-0.99-0.63-1.72-0.63s-1.29,0.21-1.72,0.63c-0.42,0.42-0.63,1.01-0.63,1.77v7.59h-4.95V9.46
			c0-0.76-0.21-1.35-0.62-1.77c-0.41-0.42-0.98-0.63-1.7-0.63c-0.74,0-1.32,0.21-1.74,0.63c-0.42,0.42-0.63,1.01-0.63,1.77v7.59
			h-4.95V2.9h4.95v1.87c0.44-0.61,1-1.09,1.7-1.45c0.7-0.36,1.5-0.54,2.41-0.54c1.04,0,1.97,0.23,2.79,0.68
			c0.82,0.46,1.46,1.09,1.93,1.92c0.5-0.77,1.17-1.4,1.99-1.88c0.82-0.48,1.73-0.72,2.72-0.72C124.76,2.77,126.16,3.31,127.18,4.39z
			"/>
		<path class="st0" d="M144.86,10.97h-9.36c0.05,0.77,0.27,1.35,0.64,1.73c0.38,0.38,0.86,0.57,1.45,0.57
			c0.82,0,1.41-0.37,1.77-1.11h5.27c-0.22,0.98-0.64,1.85-1.27,2.61s-1.43,1.37-2.38,1.8c-0.96,0.44-2.02,0.66-3.18,0.66
			c-1.4,0-2.64-0.29-3.72-0.88s-1.93-1.43-2.55-2.52s-0.92-2.38-0.92-3.86s0.3-2.76,0.91-3.85s1.45-1.92,2.54-2.51
			c1.08-0.59,2.33-0.88,3.75-0.88c1.4,0,2.63,0.29,3.71,0.86c1.08,0.57,1.92,1.39,2.52,2.46s0.91,2.33,0.91,3.77
			C144.93,10.2,144.91,10.58,144.86,10.97z M139.88,8.57c0-0.61-0.2-1.08-0.61-1.43c-0.4-0.34-0.91-0.52-1.51-0.52
			s-1.1,0.16-1.49,0.49c-0.39,0.33-0.64,0.81-0.76,1.45H139.88z"/>
	</g>
</g>
</svg>
